<?xml version="1.0" encoding="UTF-8" standalone="no"?>
<svg
   id="Layer_1"
   data-name="Layer 1"
   viewBox="0 0 110.234 107.86709"
   version="1.1"
   width="110.234"
   height="107.8671"
   xml:space="preserve"
   xmlns="http://www.w3.org/2000/svg"
   xmlns:svg="http://www.w3.org/2000/svg"><defs
     id="defs1"><style
       id="style1">
      .cls-1 {
        stroke: #fff;
        stroke-miterlimit: 10;
        stroke-width: 2.5px;
      }

      .cls-2 {
        fill: #fff;
      }
    </style><style
       id="style1-4">
      .cls-1 {
        stroke: #fff;
        stroke-miterlimit: 10;
        stroke-width: 2.5px;
      }

      .cls-2 {
        fill: #fff;
      }
    </style></defs><path
     d="M 55.117001,24.06358 A 30.480725,30.46803 0 0 0 24.636559,54.531327 30.480725,30.46803 0 0 0 45.590413,83.473622 L 51.26868,65.917634 A 12.022953,12.017945 0 0 1 43.093899,54.531327 12.022953,12.017945 0 0 1 55.117001,42.513233 12.022953,12.017945 0 0 1 67.140103,54.531327 12.022953,12.017945 0 0 1 58.965322,65.917634 l 5.678267,17.555988 A 30.480725,30.46803 0 0 0 85.597443,54.531327 30.480725,30.46803 0 0 0 55.117001,24.06358 Z"
     style="display:inline;fill:none;stroke:currentColor;stroke-width:2.5;stroke-linecap:round;stroke-opacity:1"
     id="path5" /></svg>
